# This file uses centimeters as units for non-parametric coordinates.

mtllib vidrioi.mtl
g default
v -10.500006 0.500741 7.456779
v -15.073418 0.500741 7.456779
v -10.500006 4.203956 7.456779
v -15.073418 4.203956 7.456779
v -10.500006 4.203956 7.480457
v -15.073418 4.203956 7.480457
v -10.500006 0.500741 7.480457
v -15.073418 0.500741 7.480457
vt 0.742236 0.274753
vt 0.259645 0.275521
vt 0.259645 0.752537
vt 0.742236 0.751769
vt 0.224319 0.788070
vt 0.787767 0.797295
vt 0.214115 0.229995
vt 0.777562 0.239220
vn 0.000000 0.000000 -1.000000
vn 0.000000 0.000000 -1.000000
vn 0.000000 0.000000 -1.000000
vn 0.000000 0.000000 -1.000000
vn 0.000000 1.000000 0.000000
vn 0.000000 1.000000 0.000000
vn 0.000000 1.000000 0.000000
vn 0.000000 1.000000 0.000000
vn -0.000000 0.000000 1.000000
vn -0.000000 0.000000 1.000000
vn -0.000000 0.000000 1.000000
vn -0.000000 0.000000 1.000000
vn 0.000000 -1.000000 0.000000
vn 0.000000 -1.000000 0.000000
vn 0.000000 -1.000000 0.000000
vn 0.000000 -1.000000 0.000000
vn -1.000000 0.000000 0.000000
vn -1.000000 0.000000 0.000000
vn -1.000000 0.000000 0.000000
vn -1.000000 0.000000 0.000000
vn 1.000000 0.000000 -0.000000
vn 1.000000 0.000000 -0.000000
vn 1.000000 0.000000 -0.000000
vn 1.000000 0.000000 -0.000000
s off
g puerta9:pCube1 group252 group250 group251
usemtl puerta9:phong1SG
f 1/1/1 2/2/2 4/3/3 3/4/4
f 3/4/5 4/3/6 6/5/7 5/6/8
f 5/6/9 6/5/10 8/7/11 7/8/12
f 7/8/13 8/7/14 2/2/15 1/1/16
f 2/2/17 8/7/18 6/5/19 4/3/20
f 7/8/21 1/1/22 3/4/23 5/6/24
