# This file uses centimeters as units for non-parametric coordinates.

mtllib mueble2.mtl
g default
v -22.856220 4.113190 8.810641
v -22.856220 4.113190 20.434211
v -24.544297 4.113190 8.810641
v -24.544297 4.113190 20.434211
v -24.544297 4.178843 8.810641
v -24.544297 4.178843 20.434211
v -22.856220 4.178843 8.810641
v -22.856220 4.178843 20.434211
vt 0.584543 0.000000
vt 0.415457 0.000000
vt 0.584543 1.000000
vt 0.415457 1.000000
vt 0.584543 0.000000
vt 0.584543 1.000000
vt 0.415457 0.000000
vt 0.415457 1.000000
vt 0.499992 0.000000
vt 0.499992 1.000000
vt 0.499992 0.000000
vt 0.499992 1.000000
vt 0.499992 0.000000
vt 0.499992 0.000000
vt 0.499992 1.000000
vt 0.499992 1.000000
vt 0.499992 1.000000
vt 0.499992 1.000000
vt 0.499992 0.000000
vt 0.499992 0.000000
vn 0.000000 -1.000000 0.000000
vn 0.000000 -1.000000 0.000000
vn 0.000000 -1.000000 0.000000
vn 0.000000 -1.000000 0.000000
vn 0.000000 -1.000000 0.000000
vn 0.000000 -1.000000 0.000000
vn -1.000000 0.000000 0.000000
vn -1.000000 0.000000 0.000000
vn -1.000000 0.000000 0.000000
vn -1.000000 0.000000 0.000000
vn -1.000000 0.000000 0.000000
vn -1.000000 0.000000 0.000000
vn 0.000000 1.000000 0.000000
vn 0.000000 1.000000 0.000000
vn 0.000000 1.000000 0.000000
vn 0.000000 1.000000 0.000000
vn 0.000000 1.000000 0.000000
vn 0.000000 1.000000 0.000000
vn 1.000000 0.000000 0.000000
vn 1.000000 0.000000 0.000000
vn 1.000000 0.000000 0.000000
vn 1.000000 0.000000 0.000000
vn 1.000000 0.000000 0.000000
vn 1.000000 0.000000 0.000000
vn 0.000000 0.000000 1.000000
vn 0.000000 0.000000 1.000000
vn 0.000000 0.000000 1.000000
vn 0.000000 0.000000 1.000000
vn 0.000000 0.000000 1.000000
vn 0.000000 0.000000 1.000000
vn -0.000000 0.000000 -1.000000
vn -0.000000 0.000000 -1.000000
vn -0.000000 0.000000 -1.000000
vn -0.000000 0.000000 -1.000000
vn -0.000000 0.000000 -1.000000
vn -0.000000 0.000000 -1.000000
s off
g mueble2:group190group191group186group178group179group180group181pasted__pasted__pasted__pasted__pasted__pasted__pasted__pCube10 group260 group252 group250 group251
usemtl mueble2:pasted__pasted__pasted__pasted__pasted__pasted__pasted__phongE10SG16
f 3/1/1 1/2/2 4/3/3
f 4/3/4 1/2/5 2/4/6
f 5/5/7 3/1/8 6/6/9
f 6/6/10 3/1/11 4/3/12
f 7/7/13 5/5/14 8/8/15
f 8/8/16 5/5/17 6/6/18
f 1/9/19 7/10/20 2/11/21
f 2/11/22 7/10/23 8/12/24
f 4/13/25 2/14/26 6/15/27
f 6/15/28 2/14/29 8/16/30
f 5/17/31 7/18/32 3/19/33
f 3/19/34 7/18/35 1/20/36
g default
v -22.856220 2.255730 8.833520
v -22.856220 2.255730 20.427941
v -24.544297 2.255730 8.833520
v -24.544297 2.255730 20.427941
v -24.544297 2.321383 8.833520
v -24.544297 2.321383 20.427941
v -22.856220 2.321383 8.833520
v -22.856220 2.321383 20.427941
v -22.856220 1.238580 8.833520
v -22.856220 1.238580 20.427941
v -24.544297 1.238580 8.833520
v -24.544297 1.238580 20.427941
v -24.544297 1.304233 8.833520
v -24.544297 1.304233 20.427941
v -22.856220 1.304233 8.833520
v -22.856220 1.304233 20.427941
vt 0.584543 0.000000
vt 0.415457 0.000000
vt 0.584543 1.000000
vt 0.415457 1.000000
vt 0.584543 0.000000
vt 0.584543 1.000000
vt 0.415457 0.000000
vt 0.415457 1.000000
vt 0.499992 0.000000
vt 0.499992 1.000000
vt 0.499992 0.000000
vt 0.499992 1.000000
vt 0.499992 0.000000
vt 0.499992 0.000000
vt 0.499992 1.000000
vt 0.499992 1.000000
vt 0.499992 1.000000
vt 0.499992 1.000000
vt 0.499992 0.000000
vt 0.499992 0.000000
vt 0.584543 0.000000
vt 0.415457 0.000000
vt 0.584543 1.000000
vt 0.415457 1.000000
vt 0.584543 0.000000
vt 0.584543 1.000000
vt 0.415457 0.000000
vt 0.415457 1.000000
vt 0.499992 0.000000
vt 0.499992 1.000000
vt 0.499992 0.000000
vt 0.499992 1.000000
vt 0.499992 0.000000
vt 0.499992 0.000000
vt 0.499992 1.000000
vt 0.499992 1.000000
vt 0.499992 1.000000
vt 0.499992 1.000000
vt 0.499992 0.000000
vt 0.499992 0.000000
vn 0.000000 -1.000000 0.000000
vn 0.000000 -1.000000 0.000000
vn 0.000000 -1.000000 0.000000
vn 0.000000 -1.000000 0.000000
vn 0.000000 -1.000000 0.000000
vn 0.000000 -1.000000 0.000000
vn -1.000000 0.000000 0.000000
vn -1.000000 0.000000 0.000000
vn -1.000000 0.000000 0.000000
vn -1.000000 0.000000 0.000000
vn -1.000000 0.000000 0.000000
vn -1.000000 0.000000 0.000000
vn 0.000000 1.000000 0.000000
vn 0.000000 1.000000 0.000000
vn 0.000000 1.000000 0.000000
vn 0.000000 1.000000 0.000000
vn 0.000000 1.000000 0.000000
vn 0.000000 1.000000 0.000000
vn 1.000000 0.000000 0.000000
vn 1.000000 0.000000 0.000000
vn 1.000000 0.000000 0.000000
vn 1.000000 0.000000 0.000000
vn 1.000000 0.000000 0.000000
vn 1.000000 0.000000 0.000000
vn 0.000000 0.000000 1.000000
vn 0.000000 0.000000 1.000000
vn 0.000000 0.000000 1.000000
vn 0.000000 0.000000 1.000000
vn 0.000000 0.000000 1.000000
vn 0.000000 0.000000 1.000000
vn -0.000000 0.000000 -1.000000
vn -0.000000 0.000000 -1.000000
vn -0.000000 0.000000 -1.000000
vn -0.000000 0.000000 -1.000000
vn -0.000000 0.000000 -1.000000
vn -0.000000 0.000000 -1.000000
vn 0.000000 -1.000000 0.000000
vn 0.000000 -1.000000 0.000000
vn 0.000000 -1.000000 0.000000
vn 0.000000 -1.000000 0.000000
vn 0.000000 -1.000000 0.000000
vn 0.000000 -1.000000 0.000000
vn -1.000000 0.000000 0.000000
vn -1.000000 0.000000 0.000000
vn -1.000000 0.000000 0.000000
vn -1.000000 0.000000 0.000000
vn -1.000000 0.000000 0.000000
vn -1.000000 0.000000 0.000000
vn 0.000000 1.000000 0.000000
vn 0.000000 1.000000 0.000000
vn 0.000000 1.000000 0.000000
vn 0.000000 1.000000 0.000000
vn 0.000000 1.000000 0.000000
vn 0.000000 1.000000 0.000000
vn 1.000000 0.000000 0.000000
vn 1.000000 0.000000 0.000000
vn 1.000000 0.000000 0.000000
vn 1.000000 0.000000 0.000000
vn 1.000000 0.000000 0.000000
vn 1.000000 0.000000 0.000000
vn 0.000000 0.000000 1.000000
vn 0.000000 0.000000 1.000000
vn 0.000000 0.000000 1.000000
vn 0.000000 0.000000 1.000000
vn 0.000000 0.000000 1.000000
vn 0.000000 0.000000 1.000000
vn -0.000000 0.000000 -1.000000
vn -0.000000 0.000000 -1.000000
vn -0.000000 0.000000 -1.000000
vn -0.000000 0.000000 -1.000000
vn -0.000000 0.000000 -1.000000
vn -0.000000 0.000000 -1.000000
s off
g group260 group252 group250 group251 mueble2:group190group191group186group178group179group180group181pasted__pasted__pasted__pasted__pasted__pasted__pasted__pasted__pasted__1
usemtl mueble2:pasted__pasted__pasted__pasted__pasted__pasted__pasted__pasted__pasted__pasted__phongE10SG17
f 11/21/37 9/22/38 12/23/39
f 12/23/40 9/22/41 10/24/42
f 13/25/43 11/21/44 14/26/45
f 14/26/46 11/21/47 12/23/48
f 15/27/49 13/25/50 16/28/51
f 16/28/52 13/25/53 14/26/54
f 9/29/55 15/30/56 10/31/57
f 10/31/58 15/30/59 16/32/60
f 12/33/61 10/34/62 14/35/63
f 14/35/64 10/34/65 16/36/66
f 13/37/67 15/38/68 11/39/69
f 11/39/70 15/38/71 9/40/72
usemtl mueble2:pasted__pasted__pasted__pasted__pasted__pasted__pasted__pasted__pasted__phongE10SG15
f 19/41/73 17/42/74 20/43/75
f 20/43/76 17/42/77 18/44/78
f 21/45/79 19/41/80 22/46/81
f 22/46/82 19/41/83 20/43/84
f 23/47/85 21/45/86 24/48/87
f 24/48/88 21/45/89 22/46/90
f 17/49/91 23/50/92 18/51/93
f 18/51/94 23/50/95 24/52/96
f 20/53/97 18/54/98 22/55/99
f 22/55/100 18/54/101 24/56/102
f 21/57/103 23/58/104 19/59/105
f 19/59/106 23/58/107 17/60/108
g default
v -24.386522 4.164275 8.810641
v -24.386522 4.164275 20.434211
v -24.386522 0.444542 8.810641
v -24.386522 0.444542 20.434211
v -24.434525 0.444542 8.810641
v -24.434525 0.444542 20.434211
v -24.434525 4.164275 8.810641
v -24.434525 4.164275 20.434211
vt 0.584543 0.000000
vt 0.415457 0.000000
vt 0.584543 1.000000
vt 0.415457 1.000000
vt 0.584543 0.000000
vt 0.584543 1.000000
vt 0.415457 0.000000
vt 0.415457 1.000000
vt 0.499992 0.000000
vt 0.499992 1.000000
vt 0.499992 0.000000
vt 0.499992 1.000000
vt 0.499992 0.000000
vt 0.499992 0.000000
vt 0.499992 1.000000
vt 0.499992 1.000000
vt 0.499992 1.000000
vt 0.499992 1.000000
vt 0.499992 0.000000
vt 0.499992 0.000000
vn 1.000000 0.000000 0.000000
vn 1.000000 0.000000 0.000000
vn 1.000000 0.000000 0.000000
vn 1.000000 0.000000 0.000000
vn 1.000000 0.000000 0.000000
vn 1.000000 0.000000 0.000000
vn 0.000000 -1.000000 0.000000
vn 0.000000 -1.000000 0.000000
vn 0.000000 -1.000000 0.000000
vn 0.000000 -1.000000 0.000000
vn 0.000000 -1.000000 0.000000
vn 0.000000 -1.000000 0.000000
vn -1.000000 0.000000 0.000000
vn -1.000000 0.000000 0.000000
vn -1.000000 0.000000 0.000000
vn -1.000000 0.000000 0.000000
vn -1.000000 0.000000 0.000000
vn -1.000000 0.000000 0.000000
vn 0.000000 1.000000 0.000000
vn 0.000000 1.000000 0.000000
vn 0.000000 1.000000 0.000000
vn 0.000000 1.000000 0.000000
vn 0.000000 1.000000 0.000000
vn 0.000000 1.000000 0.000000
vn 0.000000 0.000000 1.000000
vn 0.000000 0.000000 1.000000
vn 0.000000 0.000000 1.000000
vn 0.000000 0.000000 1.000000
vn 0.000000 0.000000 1.000000
vn 0.000000 0.000000 1.000000
vn -0.000000 0.000000 -1.000000
vn -0.000000 0.000000 -1.000000
vn -0.000000 0.000000 -1.000000
vn -0.000000 0.000000 -1.000000
vn -0.000000 0.000000 -1.000000
vn -0.000000 0.000000 -1.000000
s off
g group260 group252 group250 group251 mueble2:group191group186group178group179group180group181pasted__pasted__pasted__pasted__pasted__pasted__pasted__pasted__pCube16
usemtl mueble2:pasted__pasted__pasted__pasted__pasted__pasted__pasted__pasted__phongE10SG19
f 27/61/109 25/62/110 28/63/111
f 28/63/112 25/62/113 26/64/114
f 29/65/115 27/61/116 30/66/117
f 30/66/118 27/61/119 28/63/120
f 31/67/121 29/65/122 32/68/123
f 32/68/124 29/65/125 30/66/126
f 25/69/127 31/70/128 26/71/129
f 26/71/130 31/70/131 32/72/132
f 28/73/133 26/74/134 30/75/135
f 30/75/136 26/74/137 32/76/138
f 29/77/139 31/78/140 27/79/141
f 27/79/142 31/78/143 25/80/144
g default
v -22.856220 4.178648 20.379203
v -22.856220 0.393819 20.379203
v -24.544297 4.178648 20.379203
v -24.544297 0.393819 20.379203
v -24.544297 4.178648 20.435089
v -24.544297 0.393819 20.435089
v -22.856220 4.178648 20.435089
v -22.856220 0.393819 20.435089
vt 0.584543 0.000000
vt 0.415457 0.000000
vt 0.584543 1.000000
vt 0.415457 1.000000
vt 0.584543 0.000000
vt 0.584543 1.000000
vt 0.415457 0.000000
vt 0.415457 1.000000
vt 0.499992 0.000000
vt 0.499992 1.000000
vt 0.499992 0.000000
vt 0.499992 1.000000
vt 0.499992 0.000000
vt 0.499992 0.000000
vt 0.499992 1.000000
vt 0.499992 1.000000
vt 0.499992 1.000000
vt 0.499992 1.000000
vt 0.499992 0.000000
vt 0.499992 0.000000
vn -0.000000 0.000000 -1.000000
vn -0.000000 0.000000 -1.000000
vn -0.000000 0.000000 -1.000000
vn -0.000000 0.000000 -1.000000
vn -0.000000 0.000000 -1.000000
vn -0.000000 0.000000 -1.000000
vn -1.000000 0.000000 0.000000
vn -1.000000 0.000000 0.000000
vn -1.000000 0.000000 0.000000
vn -1.000000 0.000000 0.000000
vn -1.000000 0.000000 0.000000
vn -1.000000 0.000000 0.000000
vn 0.000000 0.000000 1.000000
vn 0.000000 0.000000 1.000000
vn 0.000000 0.000000 1.000000
vn 0.000000 0.000000 1.000000
vn 0.000000 0.000000 1.000000
vn 0.000000 0.000000 1.000000
vn 1.000000 0.000000 0.000000
vn 1.000000 0.000000 0.000000
vn 1.000000 0.000000 0.000000
vn 1.000000 0.000000 0.000000
vn 1.000000 0.000000 0.000000
vn 1.000000 0.000000 0.000000
vn 0.000000 -1.000000 0.000000
vn 0.000000 -1.000000 0.000000
vn 0.000000 -1.000000 0.000000
vn 0.000000 -1.000000 0.000000
vn 0.000000 -1.000000 0.000000
vn 0.000000 -1.000000 0.000000
vn 0.000000 1.000000 0.000000
vn 0.000000 1.000000 0.000000
vn 0.000000 1.000000 0.000000
vn 0.000000 1.000000 0.000000
vn 0.000000 1.000000 0.000000
vn 0.000000 1.000000 0.000000
s off
g group260 group252 group250 group251 mueble2:pasted__pasted__pasted__pasted__pasted__pasted__pasted__pasted__pasted__pasted__pasted__pCube10group190group191group186group178g
usemtl mueble2:pasted__pasted__pasted__pasted__pasted__pasted__pasted__pasted__pasted__pasted__pasted__phongE10SG19
f 35/81/145 33/82/146 36/83/147
f 36/83/148 33/82/149 34/84/150
f 37/85/151 35/81/152 38/86/153
f 38/86/154 35/81/155 36/83/156
f 39/87/157 37/85/158 40/88/159
f 40/88/160 37/85/161 38/86/162
f 33/89/163 39/90/164 34/91/165
f 34/91/166 39/90/167 40/92/168
f 36/93/169 34/94/170 38/95/171
f 38/95/172 34/94/173 40/96/174
f 37/97/175 39/98/176 35/99/177
f 35/99/178 39/98/179 33/100/180
g default
v -22.856220 4.178648 16.723250
v -22.856220 0.393819 16.723250
v -24.544297 4.178648 16.723250
v -24.544297 0.393819 16.723250
v -24.544297 4.178648 16.779138
v -24.544297 0.393819 16.779138
v -22.856220 4.178648 16.779138
v -22.856220 0.393819 16.779138
v -22.856220 4.178648 12.330778
v -22.856220 0.393819 12.330778
v -24.544297 4.178648 12.330778
v -24.544297 0.393819 12.330778
v -24.544297 4.178648 12.386665
v -24.544297 0.393819 12.386665
v -22.856220 4.178648 12.386665
v -22.856220 0.393819 12.386665
v -22.856220 3.309741 8.833520
v -22.856220 3.309741 20.427941
v -24.544297 3.309741 8.833520
v -24.544297 3.309741 20.427941
v -24.544297 3.375394 8.833520
v -24.544297 3.375394 20.427941
v -22.856220 3.375394 8.833520
v -22.856220 3.375394 20.427941
vt 0.584543 0.000000
vt 0.415457 0.000000
vt 0.584543 1.000000
vt 0.415457 1.000000
vt 0.584543 0.000000
vt 0.584543 1.000000
vt 0.415457 0.000000
vt 0.415457 1.000000
vt 0.499992 0.000000
vt 0.499992 1.000000
vt 0.499992 0.000000
vt 0.499992 1.000000
vt 0.499992 0.000000
vt 0.499992 0.000000
vt 0.499992 1.000000
vt 0.499992 1.000000
vt 0.499992 1.000000
vt 0.499992 1.000000
vt 0.499992 0.000000
vt 0.499992 0.000000
vt 0.584543 0.000000
vt 0.415457 0.000000
vt 0.584543 1.000000
vt 0.415457 1.000000
vt 0.584543 0.000000
vt 0.584543 1.000000
vt 0.415457 0.000000
vt 0.415457 1.000000
vt 0.499992 0.000000
vt 0.499992 1.000000
vt 0.499992 0.000000
vt 0.499992 1.000000
vt 0.499992 0.000000
vt 0.499992 0.000000
vt 0.499992 1.000000
vt 0.499992 1.000000
vt 0.499992 1.000000
vt 0.499992 1.000000
vt 0.499992 0.000000
vt 0.499992 0.000000
vt 0.584543 0.000000
vt 0.415457 0.000000
vt 0.584543 1.000000
vt 0.415457 1.000000
vt 0.584543 0.000000
vt 0.584543 1.000000
vt 0.415457 0.000000
vt 0.415457 1.000000
vt 0.499992 0.000000
vt 0.499992 1.000000
vt 0.499992 0.000000
vt 0.499992 1.000000
vt 0.499992 0.000000
vt 0.499992 0.000000
vt 0.499992 1.000000
vt 0.499992 1.000000
vt 0.499992 1.000000
vt 0.499992 1.000000
vt 0.499992 0.000000
vt 0.499992 0.000000
vn -0.000000 0.000000 -1.000000
vn -0.000000 0.000000 -1.000000
vn -0.000000 0.000000 -1.000000
vn -0.000000 0.000000 -1.000000
vn -0.000000 0.000000 -1.000000
vn -0.000000 0.000000 -1.000000
vn -1.000000 0.000000 0.000000
vn -1.000000 0.000000 0.000000
vn -1.000000 0.000000 0.000000
vn -1.000000 0.000000 0.000000
vn -1.000000 0.000000 0.000000
vn -1.000000 0.000000 0.000000
vn 0.000000 0.000000 1.000000
vn 0.000000 0.000000 1.000000
vn 0.000000 0.000000 1.000000
vn 0.000000 0.000000 1.000000
vn 0.000000 0.000000 1.000000
vn 0.000000 0.000000 1.000000
vn 1.000000 0.000000 0.000000
vn 1.000000 0.000000 0.000000
vn 1.000000 0.000000 0.000000
vn 1.000000 0.000000 0.000000
vn 1.000000 0.000000 0.000000
vn 1.000000 0.000000 0.000000
vn 0.000000 -1.000000 0.000000
vn 0.000000 -1.000000 0.000000
vn 0.000000 -1.000000 0.000000
vn 0.000000 -1.000000 0.000000
vn 0.000000 -1.000000 0.000000
vn 0.000000 -1.000000 0.000000
vn 0.000000 1.000000 0.000000
vn 0.000000 1.000000 0.000000
vn 0.000000 1.000000 0.000000
vn 0.000000 1.000000 0.000000
vn 0.000000 1.000000 0.000000
vn 0.000000 1.000000 0.000000
vn -0.000000 0.000000 -1.000000
vn -0.000000 0.000000 -1.000000
vn -0.000000 0.000000 -1.000000
vn -0.000000 0.000000 -1.000000
vn -0.000000 0.000000 -1.000000
vn -0.000000 0.000000 -1.000000
vn -1.000000 0.000000 0.000000
vn -1.000000 0.000000 0.000000
vn -1.000000 0.000000 0.000000
vn -1.000000 0.000000 0.000000
vn -1.000000 0.000000 0.000000
vn -1.000000 0.000000 0.000000
vn 0.000000 0.000000 1.000000
vn 0.000000 0.000000 1.000000
vn 0.000000 0.000000 1.000000
vn 0.000000 0.000000 1.000000
vn 0.000000 0.000000 1.000000
vn 0.000000 0.000000 1.000000
vn 1.000000 0.000000 0.000000
vn 1.000000 0.000000 0.000000
vn 1.000000 0.000000 0.000000
vn 1.000000 0.000000 0.000000
vn 1.000000 0.000000 0.000000
vn 1.000000 0.000000 0.000000
vn 0.000000 -1.000000 0.000000
vn 0.000000 -1.000000 0.000000
vn 0.000000 -1.000000 0.000000
vn 0.000000 -1.000000 0.000000
vn 0.000000 -1.000000 0.000000
vn 0.000000 -1.000000 0.000000
vn 0.000000 1.000000 0.000000
vn 0.000000 1.000000 0.000000
vn 0.000000 1.000000 0.000000
vn 0.000000 1.000000 0.000000
vn 0.000000 1.000000 0.000000
vn 0.000000 1.000000 0.000000
vn 0.000000 -1.000000 0.000000
vn 0.000000 -1.000000 0.000000
vn 0.000000 -1.000000 0.000000
vn 0.000000 -1.000000 0.000000
vn 0.000000 -1.000000 0.000000
vn 0.000000 -1.000000 0.000000
vn -1.000000 0.000000 0.000000
vn -1.000000 0.000000 0.000000
vn -1.000000 0.000000 0.000000
vn -1.000000 0.000000 0.000000
vn -1.000000 0.000000 0.000000
vn -1.000000 0.000000 0.000000
vn 0.000000 1.000000 0.000000
vn 0.000000 1.000000 0.000000
vn 0.000000 1.000000 0.000000
vn 0.000000 1.000000 0.000000
vn 0.000000 1.000000 0.000000
vn 0.000000 1.000000 0.000000
vn 1.000000 0.000000 0.000000
vn 1.000000 0.000000 0.000000
vn 1.000000 0.000000 0.000000
vn 1.000000 0.000000 0.000000
vn 1.000000 0.000000 0.000000
vn 1.000000 0.000000 0.000000
vn 0.000000 0.000000 1.000000
vn 0.000000 0.000000 1.000000
vn 0.000000 0.000000 1.000000
vn 0.000000 0.000000 1.000000
vn 0.000000 0.000000 1.000000
vn 0.000000 0.000000 1.000000
vn -0.000000 0.000000 -1.000000
vn -0.000000 0.000000 -1.000000
vn -0.000000 0.000000 -1.000000
vn -0.000000 0.000000 -1.000000
vn -0.000000 0.000000 -1.000000
vn -0.000000 0.000000 -1.000000
s off
g group260 group252 group250 group251 mueble2:group190group191group186group178group179group180group181pasted__pasted__pasted__pasted__pasted__pasted__pasted__pasted__pasted__
usemtl mueble2:pasted__pasted__pasted__pasted__pasted__pasted__pasted__pasted__pasted__pasted__pasted__pasted__phongE10SG18
f 43/101/181 41/102/182 44/103/183
f 44/103/184 41/102/185 42/104/186
f 45/105/187 43/101/188 46/106/189
f 46/106/190 43/101/191 44/103/192
f 47/107/193 45/105/194 48/108/195
f 48/108/196 45/105/197 46/106/198
f 41/109/199 47/110/200 42/111/201
f 42/111/202 47/110/203 48/112/204
f 44/113/205 42/114/206 46/115/207
f 46/115/208 42/114/209 48/116/210
f 45/117/211 47/118/212 43/119/213
f 43/119/214 47/118/215 41/120/216
usemtl mueble2:pasted__pasted__pasted__pasted__pasted__pasted__pasted__pasted__pasted__pasted__pasted__pasted__pasted__phongE10SG19
f 51/121/217 49/122/218 52/123/219
f 52/123/220 49/122/221 50/124/222
f 53/125/223 51/121/224 54/126/225
f 54/126/226 51/121/227 52/123/228
f 55/127/229 53/125/230 56/128/231
f 56/128/232 53/125/233 54/126/234
f 49/129/235 55/130/236 50/131/237
f 50/131/238 55/130/239 56/132/240
f 52/133/241 50/134/242 54/135/243
f 54/135/244 50/134/245 56/136/246
f 53/137/247 55/138/248 51/139/249
f 51/139/250 55/138/251 49/140/252
usemtl mueble2:pasted__pasted__pasted__pasted__pasted__pasted__pasted__pasted__pasted__pasted__pasted__phongE10SG21
f 59/141/253 57/142/254 60/143/255
f 60/143/256 57/142/257 58/144/258
f 61/145/259 59/141/260 62/146/261
f 62/146/262 59/141/263 60/143/264
f 63/147/265 61/145/266 64/148/267
f 64/148/268 61/145/269 62/146/270
f 57/149/271 63/150/272 58/151/273
f 58/151/274 63/150/275 64/152/276
f 60/153/277 58/154/278 62/155/279
f 62/155/280 58/154/281 64/156/282
f 61/157/283 63/158/284 59/159/285
f 59/159/286 63/158/287 57/160/288
g default
v -22.856220 0.384755 8.810641
v -22.856220 0.384755 20.434211
v -24.544297 0.384755 8.810641
v -24.544297 0.384755 20.434211
v -24.544297 0.450407 8.810641
v -24.544297 0.450407 20.434211
v -22.856220 0.450407 8.810641
v -22.856220 0.450407 20.434211
vt 0.584543 0.000000
vt 0.415457 0.000000
vt 0.584543 1.000000
vt 0.415457 1.000000
vt 0.584543 0.000000
vt 0.584543 1.000000
vt 0.415457 0.000000
vt 0.415457 1.000000
vt 0.499992 0.000000
vt 0.499992 1.000000
vt 0.499992 0.000000
vt 0.499992 1.000000
vt 0.499992 0.000000
vt 0.499992 0.000000
vt 0.499992 1.000000
vt 0.499992 1.000000
vt 0.499992 1.000000
vt 0.499992 1.000000
vt 0.499992 0.000000
vt 0.499992 0.000000
vn 0.000000 -1.000000 0.000000
vn 0.000000 -1.000000 0.000000
vn 0.000000 -1.000000 0.000000
vn 0.000000 -1.000000 0.000000
vn 0.000000 -1.000000 0.000000
vn 0.000000 -1.000000 0.000000
vn -1.000000 0.000000 0.000000
vn -1.000000 0.000000 0.000000
vn -1.000000 0.000000 0.000000
vn -1.000000 0.000000 0.000000
vn -1.000000 0.000000 0.000000
vn -1.000000 0.000000 0.000000
vn 0.000000 1.000000 0.000000
vn 0.000000 1.000000 0.000000
vn 0.000000 1.000000 0.000000
vn 0.000000 1.000000 0.000000
vn 0.000000 1.000000 0.000000
vn 0.000000 1.000000 0.000000
vn 1.000000 0.000000 0.000000
vn 1.000000 0.000000 0.000000
vn 1.000000 0.000000 0.000000
vn 1.000000 0.000000 0.000000
vn 1.000000 0.000000 0.000000
vn 1.000000 0.000000 0.000000
vn 0.000000 0.000000 1.000000
vn 0.000000 0.000000 1.000000
vn 0.000000 0.000000 1.000000
vn 0.000000 0.000000 1.000000
vn 0.000000 0.000000 1.000000
vn 0.000000 0.000000 1.000000
vn -0.000000 0.000000 -1.000000
vn -0.000000 0.000000 -1.000000
vn -0.000000 0.000000 -1.000000
vn -0.000000 0.000000 -1.000000
vn -0.000000 0.000000 -1.000000
vn -0.000000 0.000000 -1.000000
s off
g group260 group252 group250 group251 mueble2:group190group191group186group178group179group180group181pasted__pasted__pasted__pasted__pasted__pasted__pasted__pasted__pCube10
usemtl mueble2:pasted__pasted__pasted__pasted__pasted__pasted__pasted__pasted__phongE10SG17
f 67/161/289 65/162/290 68/163/291
f 68/163/292 65/162/293 66/164/294
f 69/165/295 67/161/296 70/166/297
f 70/166/298 67/161/299 68/163/300
f 71/167/301 69/165/302 72/168/303
f 72/168/304 69/165/305 70/166/306
f 65/169/307 71/170/308 66/171/309
f 66/171/310 71/170/311 72/172/312
f 68/173/313 66/174/314 70/175/315
f 70/175/316 66/174/317 72/176/318
f 69/177/319 71/178/320 67/179/321
f 67/179/322 71/178/323 65/180/324
g default
v -22.856220 4.178648 8.806138
v -22.856220 0.393819 8.806138
v -24.544297 4.178648 8.806138
v -24.544297 0.393819 8.806138
v -24.544297 4.178648 8.862025
v -24.544297 0.393819 8.862025
v -22.856220 4.178648 8.862025
v -22.856220 0.393819 8.862025
vt 0.584543 0.000000
vt 0.415457 0.000000
vt 0.584543 1.000000
vt 0.415457 1.000000
vt 0.584543 0.000000
vt 0.584543 1.000000
vt 0.415457 0.000000
vt 0.415457 1.000000
vt 0.499992 0.000000
vt 0.499992 1.000000
vt 0.499992 0.000000
vt 0.499992 1.000000
vt 0.499992 0.000000
vt 0.499992 0.000000
vt 0.499992 1.000000
vt 0.499992 1.000000
vt 0.499992 1.000000
vt 0.499992 1.000000
vt 0.499992 0.000000
vt 0.499992 0.000000
vn -0.000000 0.000000 -1.000000
vn -0.000000 0.000000 -1.000000
vn -0.000000 0.000000 -1.000000
vn -0.000000 0.000000 -1.000000
vn -0.000000 0.000000 -1.000000
vn -0.000000 0.000000 -1.000000
vn -1.000000 0.000000 0.000000
vn -1.000000 0.000000 0.000000
vn -1.000000 0.000000 0.000000
vn -1.000000 0.000000 0.000000
vn -1.000000 0.000000 0.000000
vn -1.000000 0.000000 0.000000
vn 0.000000 0.000000 1.000000
vn 0.000000 0.000000 1.000000
vn 0.000000 0.000000 1.000000
vn 0.000000 0.000000 1.000000
vn 0.000000 0.000000 1.000000
vn 0.000000 0.000000 1.000000
vn 1.000000 0.000000 0.000000
vn 1.000000 0.000000 0.000000
vn 1.000000 0.000000 0.000000
vn 1.000000 0.000000 0.000000
vn 1.000000 0.000000 0.000000
vn 1.000000 0.000000 0.000000
vn 0.000000 -1.000000 0.000000
vn 0.000000 -1.000000 0.000000
vn 0.000000 -1.000000 0.000000
vn 0.000000 -1.000000 0.000000
vn 0.000000 -1.000000 0.000000
vn 0.000000 -1.000000 0.000000
vn 0.000000 1.000000 0.000000
vn 0.000000 1.000000 0.000000
vn 0.000000 1.000000 0.000000
vn 0.000000 1.000000 0.000000
vn 0.000000 1.000000 0.000000
vn 0.000000 1.000000 0.000000
s off
g group252 group250 group251 mueble2:group190group191group186group178group179group180group181pasted__pasted__pasted__pasted__pasted__pasted__pasted__pasted__pasted__2
usemtl mueble2:pasted__pasted__pasted__pasted__pasted__pasted__pasted__pasted__pasted__pasted__pasted__pasted__pasted__pasted__phongE10SG18
f 75/181/325 73/182/326 76/183/327
f 76/183/328 73/182/329 74/184/330
f 77/185/331 75/181/332 78/186/333
f 78/186/334 75/181/335 76/183/336
f 79/187/337 77/185/338 80/188/339
f 80/188/340 77/185/341 78/186/342
f 73/189/343 79/190/344 74/191/345
f 74/191/346 79/190/347 80/192/348
f 76/193/349 74/194/350 78/195/351
f 78/195/352 74/194/353 80/196/354
f 77/197/355 79/198/356 75/199/357
f 75/199/358 79/198/359 73/200/360
