# This file uses centimeters as units for non-parametric coordinates.

mtllib mueble3.mtl
g default
v -6.476123 0.449266 7.465437
v -21.760362 0.449266 7.465437
v -6.476123 0.449266 5.840026
v -21.760362 0.449266 5.840026
v -6.476123 0.514278 5.840026
v -21.760362 0.514278 5.840026
v -6.476123 0.514278 7.465437
v -21.760362 0.514278 7.465437
vt 0.584543 0.000000
vt 0.415457 0.000000
vt 0.415457 1.000000
vt 0.584543 1.000000
vt 0.584543 0.000000
vt 0.584543 1.000000
vt 0.415457 0.000000
vt 0.415457 1.000000
vt 0.499992 0.000000
vt 0.499992 1.000000
vt 0.499992 1.000000
vt 0.499992 0.000000
vt 0.499992 0.000000
vt 0.499992 0.000000
vt 0.499992 1.000000
vt 0.499992 1.000000
vt 0.499992 1.000000
vt 0.499992 1.000000
vt 0.499992 0.000000
vt 0.499992 0.000000
vn 0.000000 -1.000000 0.000000
vn 0.000000 -1.000000 0.000000
vn 0.000000 -1.000000 0.000000
vn 0.000000 -1.000000 0.000000
vn -0.000000 0.000000 -1.000000
vn -0.000000 0.000000 -1.000000
vn -0.000000 0.000000 -1.000000
vn -0.000000 0.000000 -1.000000
vn 0.000000 1.000000 0.000000
vn 0.000000 1.000000 0.000000
vn 0.000000 1.000000 0.000000
vn 0.000000 1.000000 0.000000
vn 0.000000 0.000000 1.000000
vn 0.000000 0.000000 1.000000
vn 0.000000 0.000000 1.000000
vn 0.000000 0.000000 1.000000
vn -1.000000 0.000000 0.000000
vn -1.000000 0.000000 0.000000
vn -1.000000 0.000000 0.000000
vn -1.000000 0.000000 0.000000
vn 1.000000 0.000000 0.000000
vn 1.000000 0.000000 0.000000
vn 1.000000 0.000000 0.000000
vn 1.000000 0.000000 0.000000
s off
g mueble5:group227group225group222group223group224pasted__pasted__pasted__pasted__pasted__pasted__pasted__pasted__pCube19 group261 group252 group250 group251
usemtl mueble5:pasted__pasted__pasted__pasted__pasted__pasted__pasted__pasted__phongE10SG15
f 3/1/1 1/2/2 2/3/3 4/4/4
f 5/5/5 3/1/6 4/4/7 6/6/8
f 7/7/9 5/5/10 6/6/11 8/8/12
f 1/9/13 7/10/14 8/11/15 2/12/16
f 4/13/17 2/14/18 8/15/19 6/16/20
f 5/17/21 7/18/22 1/19/23 3/20/24
g default
v -6.489140 3.416247 7.465437
v -15.133445 3.416247 7.465437
v -6.489140 3.416247 5.840026
v -15.133445 3.416247 5.840026
v -6.489140 3.481259 5.840026
v -15.133445 3.481259 5.840026
v -6.489140 3.481259 7.465437
v -15.133445 3.481259 7.465437
vt 0.584543 0.000000
vt 0.415457 0.000000
vt 0.415457 1.000000
vt 0.584543 1.000000
vt 0.584543 0.000000
vt 0.584543 1.000000
vt 0.415457 0.000000
vt 0.415457 1.000000
vt 0.499992 0.000000
vt 0.499992 1.000000
vt 0.499992 1.000000
vt 0.499992 0.000000
vt 0.499992 0.000000
vt 0.499992 0.000000
vt 0.499992 1.000000
vt 0.499992 1.000000
vt 0.499992 1.000000
vt 0.499992 1.000000
vt 0.499992 0.000000
vt 0.499992 0.000000
vn 0.000000 -1.000000 0.000000
vn 0.000000 -1.000000 0.000000
vn 0.000000 -1.000000 0.000000
vn 0.000000 -1.000000 0.000000
vn -0.000000 0.000000 -1.000000
vn -0.000000 0.000000 -1.000000
vn -0.000000 0.000000 -1.000000
vn -0.000000 0.000000 -1.000000
vn 0.000000 1.000000 0.000000
vn 0.000000 1.000000 0.000000
vn 0.000000 1.000000 0.000000
vn 0.000000 1.000000 0.000000
vn 0.000000 0.000000 1.000000
vn 0.000000 0.000000 1.000000
vn 0.000000 0.000000 1.000000
vn 0.000000 0.000000 1.000000
vn -1.000000 0.000000 0.000000
vn -1.000000 0.000000 0.000000
vn -1.000000 0.000000 0.000000
vn -1.000000 0.000000 0.000000
vn 1.000000 0.000000 0.000000
vn 1.000000 0.000000 0.000000
vn 1.000000 0.000000 0.000000
vn 1.000000 0.000000 0.000000
s off
g group261 group252 group250 group251 mueble5:group227group225group222group223group224pasted__pasted__pasted__pasted__pasted__pasted__pasted__pasted__pasted__pasted__pasted__1
usemtl mueble5:pasted__pasted__pasted__pasted__pasted__pasted__pasted__pasted__pasted__pasted__pasted__phongE10SG19
f 11/21/25 9/22/26 10/23/27 12/24/28
f 13/25/29 11/21/30 12/24/31 14/26/32
f 15/27/33 13/25/34 14/26/35 16/28/36
f 9/29/37 15/30/38 16/31/39 10/32/40
f 12/33/41 10/34/42 16/35/43 14/36/44
f 13/37/45 15/38/46 9/39/47 11/40/48
g default
v -6.476123 4.141377 7.465437
v -21.760362 4.141377 7.465437
v -6.476123 4.141377 5.840026
v -21.760362 4.141377 5.840026
v -6.476123 4.206389 5.840026
v -21.760362 4.206389 5.840026
v -6.476123 4.206389 7.465437
v -21.760362 4.206389 7.465437
vt 0.584543 0.000000
vt 0.415457 0.000000
vt 0.415457 1.000000
vt 0.584543 1.000000
vt 0.584543 0.000000
vt 0.584543 1.000000
vt 0.415457 0.000000
vt 0.415457 1.000000
vt 0.499992 0.000000
vt 0.499992 1.000000
vt 0.499992 1.000000
vt 0.499992 0.000000
vt 0.499992 0.000000
vt 0.499992 0.000000
vt 0.499992 1.000000
vt 0.499992 1.000000
vt 0.499992 1.000000
vt 0.499992 1.000000
vt 0.499992 0.000000
vt 0.499992 0.000000
vn 0.000000 -1.000000 0.000000
vn 0.000000 -1.000000 0.000000
vn 0.000000 -1.000000 0.000000
vn 0.000000 -1.000000 0.000000
vn -0.000000 0.000000 -1.000000
vn -0.000000 0.000000 -1.000000
vn -0.000000 0.000000 -1.000000
vn -0.000000 0.000000 -1.000000
vn 0.000000 1.000000 0.000000
vn 0.000000 1.000000 0.000000
vn 0.000000 1.000000 0.000000
vn 0.000000 1.000000 0.000000
vn 0.000000 0.000000 1.000000
vn 0.000000 0.000000 1.000000
vn 0.000000 0.000000 1.000000
vn 0.000000 0.000000 1.000000
vn -1.000000 0.000000 0.000000
vn -1.000000 0.000000 0.000000
vn -1.000000 0.000000 0.000000
vn -1.000000 0.000000 0.000000
vn 1.000000 0.000000 0.000000
vn 1.000000 0.000000 0.000000
vn 1.000000 0.000000 0.000000
vn 1.000000 0.000000 0.000000
s off
g group261 group252 group250 group251 mueble5:group227group225group222group223group224pasted__pasted__pasted__pasted__pasted__pasted__pasted__pCube10
usemtl mueble5:pasted__pasted__pasted__pasted__pasted__pasted__pasted__phongE10SG15
f 19/41/49 17/42/50 18/43/51 20/44/52
f 21/45/53 19/41/54 20/44/55 22/46/56
f 23/47/57 21/45/58 22/46/59 24/48/60
f 17/49/61 23/50/62 24/51/63 18/52/64
f 20/53/65 18/54/66 24/55/67 22/56/68
f 21/57/69 23/58/70 17/59/71 19/60/72
g default
v -6.489140 2.412586 7.465437
v -15.133445 2.412586 7.465437
v -6.489140 2.412586 5.840026
v -15.133445 2.412586 5.840026
v -6.489140 2.477599 5.840026
v -15.133445 2.477599 5.840026
v -6.489140 2.477599 7.465437
v -15.133445 2.477599 7.465437
vt 0.584543 0.000000
vt 0.415457 0.000000
vt 0.415457 1.000000
vt 0.584543 1.000000
vt 0.584543 0.000000
vt 0.584543 1.000000
vt 0.415457 0.000000
vt 0.415457 1.000000
vt 0.499992 0.000000
vt 0.499992 1.000000
vt 0.499992 1.000000
vt 0.499992 0.000000
vt 0.499992 0.000000
vt 0.499992 0.000000
vt 0.499992 1.000000
vt 0.499992 1.000000
vt 0.499992 1.000000
vt 0.499992 1.000000
vt 0.499992 0.000000
vt 0.499992 0.000000
vn 0.000000 -1.000000 0.000000
vn 0.000000 -1.000000 0.000000
vn 0.000000 -1.000000 0.000000
vn 0.000000 -1.000000 0.000000
vn -0.000000 0.000000 -1.000000
vn -0.000000 0.000000 -1.000000
vn -0.000000 0.000000 -1.000000
vn -0.000000 0.000000 -1.000000
vn 0.000000 1.000000 0.000000
vn 0.000000 1.000000 0.000000
vn 0.000000 1.000000 0.000000
vn 0.000000 1.000000 0.000000
vn 0.000000 0.000000 1.000000
vn 0.000000 0.000000 1.000000
vn 0.000000 0.000000 1.000000
vn 0.000000 0.000000 1.000000
vn -1.000000 0.000000 0.000000
vn -1.000000 0.000000 0.000000
vn -1.000000 0.000000 0.000000
vn -1.000000 0.000000 0.000000
vn 1.000000 0.000000 0.000000
vn 1.000000 0.000000 0.000000
vn 1.000000 0.000000 0.000000
vn 1.000000 0.000000 0.000000
s off
g group261 group252 group250 group251 mueble5:group227group225group222group223group224pasted__pasted__pasted__pasted__pasted__pasted__pasted__pasted__pasted__pasted__pCube14
usemtl mueble5:pasted__pasted__pasted__pasted__pasted__pasted__pasted__pasted__pasted__pasted__phongE10SG15
f 27/61/73 25/62/74 26/63/75 28/64/76
f 29/65/77 27/61/78 28/64/79 30/66/80
f 31/67/81 29/65/82 30/66/83 32/68/84
f 25/69/85 31/70/86 32/71/87 26/72/88
f 28/73/89 26/74/90 32/75/91 30/76/92
f 29/77/93 31/78/94 25/79/95 27/80/96
g default
v -6.470201 4.206196 7.465437
v -6.470201 0.458241 7.465437
v -6.470201 4.206196 5.840026
v -6.470201 0.458241 5.840026
v -6.543690 4.206196 5.840026
v -6.543690 0.458241 5.840026
v -6.543690 4.206196 7.465437
v -6.543690 0.458241 7.465437
vt 0.584543 0.000000
vt 0.415457 0.000000
vt 0.415457 1.000000
vt 0.584543 1.000000
vt 0.584543 0.000000
vt 0.584543 1.000000
vt 0.415457 0.000000
vt 0.415457 1.000000
vt 0.499992 0.000000
vt 0.499992 1.000000
vt 0.499992 1.000000
vt 0.499992 0.000000
vt 0.499992 0.000000
vt 0.499992 0.000000
vt 0.499992 1.000000
vt 0.499992 1.000000
vt 0.499992 1.000000
vt 0.499992 1.000000
vt 0.499992 0.000000
vt 0.499992 0.000000
vn 1.000000 0.000000 0.000000
vn 1.000000 0.000000 0.000000
vn 1.000000 0.000000 0.000000
vn 1.000000 0.000000 0.000000
vn -0.000000 0.000000 -1.000000
vn -0.000000 0.000000 -1.000000
vn -0.000000 0.000000 -1.000000
vn -0.000000 0.000000 -1.000000
vn -1.000000 0.000000 0.000000
vn -1.000000 0.000000 0.000000
vn -1.000000 0.000000 0.000000
vn -1.000000 0.000000 0.000000
vn 0.000000 0.000000 1.000000
vn 0.000000 0.000000 1.000000
vn 0.000000 0.000000 1.000000
vn 0.000000 0.000000 1.000000
vn 0.000000 -1.000000 0.000000
vn 0.000000 -1.000000 0.000000
vn 0.000000 -1.000000 0.000000
vn 0.000000 -1.000000 0.000000
vn 0.000000 1.000000 0.000000
vn 0.000000 1.000000 0.000000
vn 0.000000 1.000000 0.000000
vn 0.000000 1.000000 0.000000
s off
g group261 group252 group250 group251 mueble5:pasted__pasted__pasted__pasted__pasted__pasted__pasted__pasted__pasted__pasted__pasted__pasted__pasted__pasted__pCube12group227g
usemtl mueble5:pasted__pasted__pasted__pasted__pasted__pasted__pasted__pasted__pasted__pasted__pasted__pasted__pasted__pasted__phongE10SG16
f 35/81/97 33/82/98 34/83/99 36/84/100
f 37/85/101 35/81/102 36/84/103 38/86/104
f 39/87/105 37/85/106 38/86/107 40/88/108
f 33/89/109 39/90/110 40/91/111 34/92/112
f 36/93/113 34/94/114 40/95/115 38/96/116
f 37/97/117 39/98/118 33/99/119 35/100/120
g default
v -15.153872 2.766046 7.465437
v -21.699682 2.766046 7.465437
v -15.153872 2.766046 5.840026
v -21.699682 2.766046 5.840026
v -15.153872 2.831059 5.840026
v -21.699682 2.831059 5.840026
v -15.153872 2.831059 7.465437
v -21.699682 2.831059 7.465437
vt 0.584543 0.000000
vt 0.415457 0.000000
vt 0.415457 1.000000
vt 0.584543 1.000000
vt 0.584543 0.000000
vt 0.584543 1.000000
vt 0.415457 0.000000
vt 0.415457 1.000000
vt 0.499992 0.000000
vt 0.499992 1.000000
vt 0.499992 1.000000
vt 0.499992 0.000000
vt 0.499992 0.000000
vt 0.499992 0.000000
vt 0.499992 1.000000
vt 0.499992 1.000000
vt 0.499992 1.000000
vt 0.499992 1.000000
vt 0.499992 0.000000
vt 0.499992 0.000000
vn 0.000000 -1.000000 0.000000
vn 0.000000 -1.000000 0.000000
vn 0.000000 -1.000000 0.000000
vn 0.000000 -1.000000 0.000000
vn -0.000000 0.000000 -1.000000
vn -0.000000 0.000000 -1.000000
vn -0.000000 0.000000 -1.000000
vn -0.000000 0.000000 -1.000000
vn 0.000000 1.000000 0.000000
vn 0.000000 1.000000 0.000000
vn 0.000000 1.000000 0.000000
vn 0.000000 1.000000 0.000000
vn 0.000000 0.000000 1.000000
vn 0.000000 0.000000 1.000000
vn 0.000000 0.000000 1.000000
vn 0.000000 0.000000 1.000000
vn -1.000000 0.000000 0.000000
vn -1.000000 0.000000 0.000000
vn -1.000000 0.000000 0.000000
vn -1.000000 0.000000 0.000000
vn 1.000000 0.000000 0.000000
vn 1.000000 0.000000 0.000000
vn 1.000000 0.000000 0.000000
vn 1.000000 0.000000 0.000000
s off
g group252 group250 group251 mueble5:group227group225group222group223group224pasted__pasted__pasted__pasted__pasted__pasted__pasted__pasted__pasted__pasted__pasted__2
usemtl mueble5:pasted__pasted__pasted__pasted__pasted__pasted__pasted__pasted__pasted__pasted__pasted__phongE10SG16
f 43/101/121 41/102/122 42/103/123 44/104/124
f 45/105/125 43/101/126 44/104/127 46/106/128
f 47/107/129 45/105/130 46/106/131 48/108/132
f 41/109/133 47/110/134 48/111/135 42/112/136
f 44/113/137 42/114/138 48/115/139 46/116/140
f 45/117/141 47/118/142 41/119/143 43/120/144
g default
v -10.419944 4.206196 7.465437
v -10.419944 0.458241 7.465437
v -10.419944 4.206196 5.840026
v -10.419944 0.458241 5.840026
v -10.493432 4.206196 5.840026
v -10.493432 0.458241 5.840026
v -10.493432 4.206196 7.465437
v -10.493432 0.458241 7.465437
v -15.102541 4.206196 7.465437
v -15.102541 0.458241 7.465437
v -15.102541 4.206196 5.840026
v -15.102541 0.458241 5.840026
v -15.176029 4.206196 5.840026
v -15.176029 0.458241 5.840026
v -15.176029 4.206196 7.465437
v -15.176029 0.458241 7.465437
v -17.425083 4.206196 7.465437
v -17.425081 0.458241 7.465437
v -17.425083 4.206196 5.840026
v -17.425081 0.458241 5.840026
v -17.498571 4.206196 5.840026
v -17.498571 0.458241 5.840026
v -17.498571 4.206196 7.465437
v -17.498571 0.458241 7.465437
v -19.495308 4.206196 7.465437
v -19.495308 0.458241 7.465437
v -19.495308 4.206196 5.840026
v -19.495308 0.458241 5.840026
v -19.568795 4.206196 5.840026
v -19.568796 0.458241 5.840026
v -19.568795 4.206196 7.465437
v -19.568796 0.458241 7.465437
v -21.688031 4.206196 7.465437
v -21.688031 0.458241 7.465437
v -21.688031 4.206196 5.840026
v -21.688031 0.458241 5.840026
v -21.761518 4.206196 5.840026
v -21.761518 0.458241 5.840026
v -21.761518 4.206196 7.465437
v -21.761518 0.458241 7.465437
vt 0.584543 0.000000
vt 0.415457 0.000000
vt 0.415457 1.000000
vt 0.584543 1.000000
vt 0.584543 0.000000
vt 0.584543 1.000000
vt 0.415457 0.000000
vt 0.415457 1.000000
vt 0.499992 0.000000
vt 0.499992 1.000000
vt 0.499992 1.000000
vt 0.499992 0.000000
vt 0.499992 0.000000
vt 0.499992 0.000000
vt 0.499992 1.000000
vt 0.499992 1.000000
vt 0.499992 1.000000
vt 0.499992 1.000000
vt 0.499992 0.000000
vt 0.499992 0.000000
vt 0.584543 0.000000
vt 0.415457 0.000000
vt 0.415457 1.000000
vt 0.584543 1.000000
vt 0.584543 0.000000
vt 0.584543 1.000000
vt 0.415457 0.000000
vt 0.415457 1.000000
vt 0.499992 0.000000
vt 0.499992 1.000000
vt 0.499992 1.000000
vt 0.499992 0.000000
vt 0.499992 0.000000
vt 0.499992 0.000000
vt 0.499992 1.000000
vt 0.499992 1.000000
vt 0.499992 1.000000
vt 0.499992 1.000000
vt 0.499992 0.000000
vt 0.499992 0.000000
vt 0.584543 0.000000
vt 0.415457 0.000000
vt 0.415457 1.000000
vt 0.584543 1.000000
vt 0.584543 0.000000
vt 0.584543 1.000000
vt 0.415457 0.000000
vt 0.415457 1.000000
vt 0.499992 0.000000
vt 0.499992 1.000000
vt 0.499992 1.000000
vt 0.499992 0.000000
vt 0.499992 0.000000
vt 0.499992 0.000000
vt 0.499992 1.000000
vt 0.499992 1.000000
vt 0.499992 1.000000
vt 0.499992 1.000000
vt 0.499992 0.000000
vt 0.499992 0.000000
vt 0.584543 0.000000
vt 0.415457 0.000000
vt 0.415457 1.000000
vt 0.584543 1.000000
vt 0.584543 0.000000
vt 0.584543 1.000000
vt 0.415457 0.000000
vt 0.415457 1.000000
vt 0.499992 0.000000
vt 0.499992 1.000000
vt 0.499992 1.000000
vt 0.499992 0.000000
vt 0.499992 0.000000
vt 0.499992 0.000000
vt 0.499992 1.000000
vt 0.499992 1.000000
vt 0.499992 1.000000
vt 0.499992 1.000000
vt 0.499992 0.000000
vt 0.499992 0.000000
vt 0.584543 0.000000
vt 0.415457 0.000000
vt 0.415457 1.000000
vt 0.584543 1.000000
vt 0.584543 0.000000
vt 0.584543 1.000000
vt 0.415457 0.000000
vt 0.415457 1.000000
vt 0.499992 0.000000
vt 0.499992 1.000000
vt 0.499992 1.000000
vt 0.499992 0.000000
vt 0.499992 0.000000
vt 0.499992 0.000000
vt 0.499992 1.000000
vt 0.499992 1.000000
vt 0.499992 1.000000
vt 0.499992 1.000000
vt 0.499992 0.000000
vt 0.499992 0.000000
vn 1.000000 0.000000 0.000000
vn 1.000000 0.000000 0.000000
vn 1.000000 0.000000 0.000000
vn 1.000000 0.000000 0.000000
vn -0.000000 0.000000 -1.000000
vn -0.000000 0.000000 -1.000000
vn -0.000000 0.000000 -1.000000
vn -0.000000 0.000000 -1.000000
vn -1.000000 0.000000 0.000000
vn -1.000000 0.000000 0.000000
vn -1.000000 0.000000 0.000000
vn -1.000000 0.000000 0.000000
vn 0.000000 -0.000000 1.000000
vn 0.000000 -0.000000 1.000000
vn 0.000000 -0.000000 1.000000
vn 0.000000 -0.000000 1.000000
vn 0.000000 -1.000000 0.000000
vn 0.000000 -1.000000 0.000000
vn 0.000000 -1.000000 0.000000
vn 0.000000 -1.000000 0.000000
vn 0.000000 1.000000 0.000000
vn 0.000000 1.000000 0.000000
vn 0.000000 1.000000 0.000000
vn 0.000000 1.000000 0.000000
vn 1.000000 0.000000 0.000000
vn 1.000000 0.000000 0.000000
vn 1.000000 0.000000 0.000000
vn 1.000000 0.000000 0.000000
vn -0.000000 0.000000 -1.000000
vn -0.000000 0.000000 -1.000000
vn -0.000000 0.000000 -1.000000
vn -0.000000 0.000000 -1.000000
vn -1.000000 0.000000 0.000000
vn -1.000000 0.000000 0.000000
vn -1.000000 0.000000 0.000000
vn -1.000000 0.000000 0.000000
vn 0.000000 0.000000 1.000000
vn 0.000000 0.000000 1.000000
vn 0.000000 0.000000 1.000000
vn 0.000000 0.000000 1.000000
vn 0.000000 -1.000000 0.000000
vn 0.000000 -1.000000 0.000000
vn 0.000000 -1.000000 0.000000
vn 0.000000 -1.000000 0.000000
vn 0.000000 1.000000 0.000000
vn 0.000000 1.000000 0.000000
vn 0.000000 1.000000 0.000000
vn 0.000000 1.000000 0.000000
vn 1.000000 0.000000 0.000000
vn 1.000000 0.000000 0.000000
vn 1.000000 0.000000 0.000000
vn 1.000000 0.000000 0.000000
vn 0.000000 0.000000 -1.000000
vn 0.000000 0.000000 -1.000000
vn 0.000000 0.000000 -1.000000
vn 0.000000 0.000000 -1.000000
vn -1.000000 -0.000000 0.000000
vn -1.000000 -0.000000 0.000000
vn -1.000000 -0.000000 0.000000
vn -1.000000 -0.000000 0.000000
vn 0.000000 0.000000 1.000000
vn 0.000000 0.000000 1.000000
vn 0.000000 0.000000 1.000000
vn 0.000000 0.000000 1.000000
vn 0.000000 -1.000000 0.000000
vn 0.000000 -1.000000 0.000000
vn 0.000000 -1.000000 0.000000
vn 0.000000 -1.000000 0.000000
vn 0.000000 1.000000 0.000000
vn 0.000000 1.000000 0.000000
vn 0.000000 1.000000 0.000000
vn 0.000000 1.000000 0.000000
vn 1.000000 0.000000 0.000000
vn 1.000000 0.000000 0.000000
vn 1.000000 0.000000 0.000000
vn 1.000000 0.000000 0.000000
vn 0.000000 0.000000 -1.000000
vn 0.000000 0.000000 -1.000000
vn 0.000000 0.000000 -1.000000
vn 0.000000 0.000000 -1.000000
vn -1.000000 0.000000 0.000000
vn -1.000000 0.000000 0.000000
vn -1.000000 0.000000 0.000000
vn -1.000000 0.000000 0.000000
vn 0.000000 0.000000 1.000000
vn 0.000000 0.000000 1.000000
vn 0.000000 0.000000 1.000000
vn 0.000000 0.000000 1.000000
vn 0.000000 -1.000000 0.000000
vn 0.000000 -1.000000 0.000000
vn 0.000000 -1.000000 0.000000
vn 0.000000 -1.000000 0.000000
vn 0.000000 1.000000 0.000000
vn 0.000000 1.000000 0.000000
vn 0.000000 1.000000 0.000000
vn 0.000000 1.000000 0.000000
vn 1.000000 0.000000 0.000000
vn 1.000000 0.000000 0.000000
vn 1.000000 0.000000 0.000000
vn 1.000000 0.000000 0.000000
vn 0.000000 0.000000 -1.000000
vn 0.000000 0.000000 -1.000000
vn 0.000000 0.000000 -1.000000
vn 0.000000 0.000000 -1.000000
vn -1.000000 0.000000 0.000000
vn -1.000000 0.000000 0.000000
vn -1.000000 0.000000 0.000000
vn -1.000000 0.000000 0.000000
vn 0.000000 0.000000 1.000000
vn 0.000000 0.000000 1.000000
vn 0.000000 0.000000 1.000000
vn 0.000000 0.000000 1.000000
vn 0.000000 -1.000000 0.000000
vn 0.000000 -1.000000 0.000000
vn 0.000000 -1.000000 0.000000
vn 0.000000 -1.000000 0.000000
vn 0.000000 1.000000 0.000000
vn 0.000000 1.000000 0.000000
vn 0.000000 1.000000 0.000000
vn 0.000000 1.000000 0.000000
s off
g group261 group252 group250 group251 mueble5:group227group225group222group223group224pasted__pasted__pasted__pasted__pasted__pasted__pasted__pasted__pasted__pasted__pasted__
usemtl mueble5:pasted__pasted__pasted__pasted__pasted__pasted__pasted__pasted__pasted__pasted__pasted__pasted__pasted__pasted__phongE10SG18
f 51/121/145 49/122/146 50/123/147 52/124/148
f 53/125/149 51/121/150 52/124/151 54/126/152
f 55/127/153 53/125/154 54/126/155 56/128/156
f 49/129/157 55/130/158 56/131/159 50/132/160
f 52/133/161 50/134/162 56/135/163 54/136/164
f 53/137/165 55/138/166 49/139/167 51/140/168
usemtl mueble5:pasted__pasted__pasted__pasted__pasted__pasted__pasted__pasted__pasted__pasted__pasted__pasted__pasted__phongE10SG17
f 59/141/169 57/142/170 58/143/171 60/144/172
f 61/145/173 59/141/174 60/144/175 62/146/176
f 63/147/177 61/145/178 62/146/179 64/148/180
f 57/149/181 63/150/182 64/151/183 58/152/184
f 60/153/185 58/154/186 64/155/187 62/156/188
f 61/157/189 63/158/190 57/159/191 59/160/192
usemtl mueble5:pasted__pasted__pasted__pasted__pasted__pasted__pasted__pasted__pasted__pasted__pasted__pasted__pasted__phongE10SG19
f 67/161/193 65/162/194 66/163/195 68/164/196
f 69/165/197 67/161/198 68/164/199 70/166/200
f 71/167/201 69/165/202 70/166/203 72/168/204
f 65/169/205 71/170/206 72/171/207 66/172/208
f 68/173/209 66/174/210 72/175/211 70/176/212
f 69/177/213 71/178/214 65/179/215 67/180/216
usemtl mueble5:pasted__pasted__pasted__pasted__pasted__pasted__pasted__pasted__pasted__pasted__pasted__pasted__phongE10SG17
f 75/181/217 73/182/218 74/183/219 76/184/220
f 77/185/221 75/181/222 76/184/223 78/186/224
f 79/187/225 77/185/226 78/186/227 80/188/228
f 73/189/229 79/190/230 80/191/231 74/192/232
f 76/193/233 74/194/234 80/195/235 78/196/236
f 77/197/237 79/198/238 73/199/239 75/200/240
usemtl mueble5:pasted__pasted__pasted__pasted__pasted__pasted__pasted__pasted__pasted__pasted__pasted__phongE10SG17
f 83/201/241 81/202/242 82/203/243 84/204/244
f 85/205/245 83/201/246 84/204/247 86/206/248
f 87/207/249 85/205/250 86/206/251 88/208/252
f 81/209/253 87/210/254 88/211/255 82/212/256
f 84/213/257 82/214/258 88/215/259 86/216/260
f 85/217/261 87/218/262 81/219/263 83/220/264
g default
v -6.506205 1.441996 7.465437
v -21.752118 1.441996 7.465437
v -6.506205 1.441996 5.840026
v -21.752118 1.441996 5.840026
v -6.506205 1.507008 5.840026
v -21.752118 1.507008 5.840026
v -6.506205 1.507008 7.465437
v -21.752118 1.507008 7.465437
vt 0.584543 0.000000
vt 0.415457 0.000000
vt 0.415457 1.000000
vt 0.584543 1.000000
vt 0.584543 0.000000
vt 0.584543 1.000000
vt 0.415457 0.000000
vt 0.415457 1.000000
vt 0.499992 0.000000
vt 0.499992 1.000000
vt 0.499992 1.000000
vt 0.499992 0.000000
vt 0.499992 0.000000
vt 0.499992 0.000000
vt 0.499992 1.000000
vt 0.499992 1.000000
vt 0.499992 1.000000
vt 0.499992 1.000000
vt 0.499992 0.000000
vt 0.499992 0.000000
vn 0.000000 -1.000000 0.000000
vn 0.000000 -1.000000 0.000000
vn 0.000000 -1.000000 0.000000
vn 0.000000 -1.000000 0.000000
vn -0.000000 0.000000 -1.000000
vn -0.000000 0.000000 -1.000000
vn -0.000000 0.000000 -1.000000
vn -0.000000 0.000000 -1.000000
vn 0.000000 1.000000 0.000000
vn 0.000000 1.000000 0.000000
vn 0.000000 1.000000 0.000000
vn 0.000000 1.000000 0.000000
vn 0.000000 0.000000 1.000000
vn 0.000000 0.000000 1.000000
vn 0.000000 0.000000 1.000000
vn 0.000000 0.000000 1.000000
vn -1.000000 0.000000 0.000000
vn -1.000000 0.000000 0.000000
vn -1.000000 0.000000 0.000000
vn -1.000000 0.000000 0.000000
vn 1.000000 0.000000 0.000000
vn 1.000000 0.000000 0.000000
vn 1.000000 0.000000 0.000000
vn 1.000000 0.000000 0.000000
s off
g group261 group252 group250 group251 mueble5:group227group225group222group223group224pasted__pasted__pasted__pasted__pasted__pasted__pasted__pasted__pasted__pCube12
usemtl mueble5:pasted__pasted__pasted__pasted__pasted__pasted__pasted__pasted__pasted__phongE10SG14
f 91/221/265 89/222/266 90/223/267 92/224/268
f 93/225/269 91/221/270 92/224/271 94/226/272
f 95/227/273 93/225/274 94/226/275 96/228/276
f 89/229/277 95/230/278 96/231/279 90/232/280
f 92/233/281 90/234/282 96/235/283 94/236/284
f 93/237/285 95/238/286 89/239/287 91/240/288
g default
v -6.476123 4.191964 5.991943
v -21.760362 4.191964 5.991943
v -6.476123 0.508470 5.991943
v -21.760362 0.508470 5.991943
v -6.476123 0.508470 5.945723
v -21.760362 0.508470 5.945723
v -6.476123 4.191964 5.945723
v -21.760362 4.191964 5.945723
vt 0.584543 0.000000
vt 0.415457 0.000000
vt 0.415457 1.000000
vt 0.584543 1.000000
vt 0.584543 0.000000
vt 0.584543 1.000000
vt 0.415457 0.000000
vt 0.415457 1.000000
vt 0.499992 0.000000
vt 0.499992 1.000000
vt 0.499992 1.000000
vt 0.499992 0.000000
vt 0.499992 0.000000
vt 0.499992 0.000000
vt 0.499992 1.000000
vt 0.499992 1.000000
vt 0.499992 1.000000
vt 0.499992 1.000000
vt 0.499992 0.000000
vt 0.499992 0.000000
vn 0.000000 0.000000 1.000000
vn 0.000000 0.000000 1.000000
vn 0.000000 0.000000 1.000000
vn 0.000000 0.000000 1.000000
vn 0.000000 -1.000000 0.000000
vn 0.000000 -1.000000 0.000000
vn 0.000000 -1.000000 0.000000
vn 0.000000 -1.000000 0.000000
vn -0.000000 0.000000 -1.000000
vn -0.000000 0.000000 -1.000000
vn -0.000000 0.000000 -1.000000
vn -0.000000 0.000000 -1.000000
vn 0.000000 1.000000 0.000000
vn 0.000000 1.000000 0.000000
vn 0.000000 1.000000 0.000000
vn 0.000000 1.000000 0.000000
vn -1.000000 0.000000 0.000000
vn -1.000000 0.000000 0.000000
vn -1.000000 0.000000 0.000000
vn -1.000000 0.000000 0.000000
vn 1.000000 0.000000 0.000000
vn 1.000000 0.000000 0.000000
vn 1.000000 0.000000 0.000000
vn 1.000000 0.000000 0.000000
s off
g group261 group252 group250 group251 mueble5:group227group225group222group223group224pasted__pasted__pasted__pasted__pasted__pasted__pasted__pasted__pCube18
usemtl mueble5:pasted__pasted__pasted__pasted__pasted__pasted__pasted__pasted__phongE10SG17
f 99/241/289 97/242/290 98/243/291 100/244/292
f 101/245/293 99/241/294 100/244/295 102/246/296
f 103/247/297 101/245/298 102/246/299 104/248/300
f 97/249/301 103/250/302 104/251/303 98/252/304
f 100/253/305 98/254/306 104/255/307 102/256/308
f 101/257/309 103/258/310 97/259/311 99/260/312
